<svg width="84" height="72" viewBox="0 0 84 72" fill="none" xmlns="http://www.w3.org/2000/svg">
<mask id="path-1-outside-1_252_10" maskUnits="userSpaceOnUse" x="-0.0012207" y="0" width="84" height="72" fill="black">
<rect fill="white" x="-0.0012207" width="84" height="72"/>
<path d="M82.9996 7.82165V64.1784C82.9568 64.2802 82.8926 64.3753 82.8712 64.4816C82.0475 68.533 79.219 70.9728 75.3016 70.9977C73.8873 71.0068 72.4731 70.9977 71.0567 70.9977C50.3181 70.9977 29.5796 71 8.83889 70.9977C4.2667 70.9977 1.00818 67.6661 1.0039 62.9471C0.99534 44.9786 0.99534 27.0146 1.02101 9.05063C1.02101 8.13399 1.17078 7.18113 1.4425 6.31202C2.4866 2.97135 5.27442 1 8.84317 1C30.9425 1 53.0439 1 75.1432 1C75.3572 1 75.5711 1 75.783 1.00905C78.7334 1.16975 80.8879 2.66354 82.2165 5.43611C82.5717 6.17848 82.7429 7.02044 82.9975 7.81712L82.9996 7.82165ZM15.6405 67.562C15.6405 64.1919 15.6405 60.9124 15.6405 57.6328C15.6405 55.0594 15.6234 52.4838 15.6469 49.9104C15.6704 47.3958 17.1617 45.8409 19.5152 45.8341C21.2504 45.8296 22.9855 45.8319 24.7186 45.8341C27.2881 45.8364 28.7238 47.3574 28.7259 50.0914C28.7302 55.58 28.7259 61.0663 28.7259 66.5548C28.7259 66.883 28.7259 67.2112 28.7259 67.5575H33.5206C33.5206 67.2067 33.5206 66.9034 33.5206 66.6001C33.5206 63.7144 33.5163 60.8286 33.5249 57.9452C33.5249 57.5242 33.5527 57.0964 33.6169 56.6822C33.8373 55.2496 34.6802 54.2673 35.8035 53.4955C34.4321 50.0009 33.082 46.5607 31.732 43.1227C30.4974 39.9789 30.9275 37.9125 33.2339 35.5632C36.1095 32.6344 38.816 29.5586 40.6004 25.7087C40.8806 25.1044 41.3599 24.7807 42.0146 24.7807C42.7014 24.7807 43.1571 25.1315 43.4866 25.754C44.0365 26.786 44.4986 27.9064 45.2068 28.8004C47.1409 31.2425 49.1371 33.6371 51.1996 35.9593C52.8963 37.8695 53.4205 40.1374 52.4919 42.5795C52.0148 43.8356 51.5141 45.085 51.0263 46.3366C50.0956 48.7335 49.1671 51.1303 48.2257 53.5498C49.9715 54.6498 50.5321 56.2929 50.4914 58.3164C50.4337 61.0867 50.4765 63.8592 50.4765 66.6318V67.5371H54.9631C54.9631 67.1614 54.9631 66.8536 54.9631 66.5435C54.9631 62.4695 54.9203 58.3956 54.9973 54.3239C55.0144 53.4774 55.2797 52.4634 55.7804 51.841C56.388 51.085 56.5185 50.3653 56.4907 49.4758C56.4372 47.6901 57.1754 46.3932 58.673 45.5535C58.887 45.4335 59.0945 45.0714 59.1052 44.8134C59.1523 43.684 59.1159 42.5523 59.1288 41.4207C59.1416 40.298 59.7578 39.5783 60.6906 39.5602C61.6513 39.5421 62.3081 40.2845 62.3252 41.441C62.3424 42.5433 62.3509 43.6478 62.3188 44.75C62.306 45.2095 62.4365 45.4471 62.843 45.6418C63.8721 46.1352 64.576 46.9952 64.8114 48.1631C64.959 48.8987 64.8841 49.6818 64.9526 50.44C64.9783 50.7229 65.0532 51.0783 65.2329 51.2525C66.1721 52.1624 66.5059 53.2827 66.4995 54.5977C66.4781 58.6151 66.4931 62.6302 66.4931 66.6476C66.4931 66.9487 66.4931 67.2474 66.4931 67.6073C69.452 67.6073 72.3019 67.6118 75.1539 67.6073C78.0616 67.6028 79.7946 65.7763 79.7946 62.7117C79.7967 50.0394 79.7946 37.3671 79.7946 24.6924C79.7946 24.3937 79.7946 24.0972 79.7946 23.8007H4.20465C4.20465 24.1447 4.20465 24.448 4.20465 24.7513C4.20465 37.3671 4.20465 49.9828 4.20465 62.6008C4.20465 62.8837 4.19823 63.1667 4.21749 63.4496C4.35228 65.4956 5.89061 67.424 7.7841 67.5281C10.3601 67.6707 12.9468 67.5643 15.6405 67.5643V67.562ZM4.21535 20.2948H79.7839C79.7839 16.3272 79.7839 12.423 79.7817 8.52102C79.7817 8.38069 79.7539 8.24037 79.7283 8.1023C79.2961 5.76882 77.6101 4.39498 75.1497 4.39498C53.0482 4.39498 30.9489 4.39498 8.84745 4.39498C8.6335 4.39498 8.41954 4.39498 8.20773 4.4063C6.1174 4.50815 4.28167 6.3007 4.23674 8.52328C4.15972 12.423 4.21535 16.3272 4.21535 20.2971V20.2948ZM40.3992 52.9478C40.3992 50.2069 40.3928 47.4954 40.4035 44.7862C40.4078 43.6206 41.0539 42.8986 42.0317 42.9167C42.9731 42.9326 43.5893 43.641 43.5979 44.7681C43.6107 46.8028 43.6021 48.8398 43.6021 50.8746C43.6021 51.5739 43.6021 52.2755 43.6021 53.0949C44.2012 52.8957 44.8345 53.4095 45.1747 52.52C46.6146 48.7538 48.0909 45.0012 49.5458 41.2419C49.9673 40.1532 49.7533 39.2026 48.9488 38.3901C48.2727 37.7066 47.5731 37.0457 46.9569 36.3056C45.2688 34.2776 43.6214 32.2135 41.9376 30.1403C41.929 30.1516 41.8327 30.2421 41.7621 30.353C39.8965 33.2704 37.6457 35.8303 35.2323 38.2407C34.1732 39.2977 34.0106 40.0876 34.5647 41.5021C35.9447 45.0216 37.3632 48.523 38.6876 52.0651C39.0299 52.9794 39.4814 53.2442 40.4014 52.9523L40.3992 52.9478ZM47.2779 67.5779V66.745C47.2779 63.8343 47.2779 60.926 47.2779 58.0153C47.2779 56.7501 47.004 56.4468 45.8315 56.4446C43.2726 56.4378 40.7138 56.4378 38.1549 56.4446C37.0145 56.4468 36.7257 56.7547 36.7235 57.9452C36.7192 60.9124 36.7214 63.8773 36.7235 66.8446C36.7235 67.0867 36.7535 67.3266 36.7706 67.5801H47.2757L47.2779 67.5779ZM25.523 67.5665C25.523 66.5684 25.523 65.6676 25.523 64.7646C25.523 59.9029 25.523 55.0391 25.523 50.1775C25.523 49.6773 25.5637 49.2065 24.8576 49.2155C23.0711 49.2404 21.2825 49.2042 19.4981 49.2495C19.2777 49.254 18.9097 49.5731 18.8798 49.7859C18.7963 50.4128 18.8498 51.0601 18.8498 51.755C19.6072 51.755 20.2448 51.7459 20.8824 51.755C21.9928 51.7731 22.7117 52.4272 22.7245 53.4163C22.7395 54.437 21.9971 55.1251 20.8481 55.1432C20.2127 55.1522 19.5772 55.1432 18.9118 55.1432V57.2368C19.6735 57.2368 20.3646 57.2119 21.0557 57.2435C22.0377 57.2865 22.7159 57.9927 22.7245 58.9297C22.7331 59.8962 22.0249 60.6 20.9979 60.6249C20.3132 60.6408 19.6264 60.6272 18.9097 60.6272V62.7593C19.6136 62.7593 20.2491 62.7479 20.8866 62.7615C22.0078 62.7864 22.7159 63.436 22.7266 64.4273C22.7395 65.4481 22.0056 66.1248 20.846 66.1474C20.2127 66.1588 19.5772 66.1474 18.9033 66.1474V67.5575H25.523V67.5665ZM63.2902 67.562C63.2902 63.1033 63.2859 58.7509 63.2966 54.3985C63.2966 53.878 63.042 53.801 62.6376 53.8033C61.4095 53.8169 60.1814 53.8463 58.9555 53.792C58.2943 53.7626 58.151 54.0228 58.1553 54.6724C58.1788 58.7441 58.166 62.8181 58.1703 66.8898C58.1703 67.1071 58.2024 67.3244 58.2216 67.562H63.2902ZM61.8246 50.3721C61.7112 49.7836 61.7647 48.9937 61.4737 48.8059C61.0822 48.5524 60.3034 48.5705 59.9204 48.8398C59.6401 49.0367 59.73 49.8244 59.6508 50.3721H61.8246Z"/>
</mask>
<path d="M82.9996 7.82165V64.1784C82.9568 64.2802 82.8926 64.3753 82.8712 64.4816C82.0475 68.533 79.219 70.9728 75.3016 70.9977C73.8873 71.0068 72.4731 70.9977 71.0567 70.9977C50.3181 70.9977 29.5796 71 8.83889 70.9977C4.2667 70.9977 1.00818 67.6661 1.0039 62.9471C0.99534 44.9786 0.99534 27.0146 1.02101 9.05063C1.02101 8.13399 1.17078 7.18113 1.4425 6.31202C2.4866 2.97135 5.27442 1 8.84317 1C30.9425 1 53.0439 1 75.1432 1C75.3572 1 75.5711 1 75.783 1.00905C78.7334 1.16975 80.8879 2.66354 82.2165 5.43611C82.5717 6.17848 82.7429 7.02044 82.9975 7.81712L82.9996 7.82165ZM15.6405 67.562C15.6405 64.1919 15.6405 60.9124 15.6405 57.6328C15.6405 55.0594 15.6234 52.4838 15.6469 49.9104C15.6704 47.3958 17.1617 45.8409 19.5152 45.8341C21.2504 45.8296 22.9855 45.8319 24.7186 45.8341C27.2881 45.8364 28.7238 47.3574 28.7259 50.0914C28.7302 55.58 28.7259 61.0663 28.7259 66.5548C28.7259 66.883 28.7259 67.2112 28.7259 67.5575H33.5206C33.5206 67.2067 33.5206 66.9034 33.5206 66.6001C33.5206 63.7144 33.5163 60.8286 33.5249 57.9452C33.5249 57.5242 33.5527 57.0964 33.6169 56.6822C33.8373 55.2496 34.6802 54.2673 35.8035 53.4955C34.4321 50.0009 33.082 46.5607 31.732 43.1227C30.4974 39.9789 30.9275 37.9125 33.2339 35.5632C36.1095 32.6344 38.816 29.5586 40.6004 25.7087C40.8806 25.1044 41.3599 24.7807 42.0146 24.7807C42.7014 24.7807 43.1571 25.1315 43.4866 25.754C44.0365 26.786 44.4986 27.9064 45.2068 28.8004C47.1409 31.2425 49.1371 33.6371 51.1996 35.9593C52.8963 37.8695 53.4205 40.1374 52.4919 42.5795C52.0148 43.8356 51.5141 45.085 51.0263 46.3366C50.0956 48.7335 49.1671 51.1303 48.2257 53.5498C49.9715 54.6498 50.5321 56.2929 50.4914 58.3164C50.4337 61.0867 50.4765 63.8592 50.4765 66.6318V67.5371H54.9631C54.9631 67.1614 54.9631 66.8536 54.9631 66.5435C54.9631 62.4695 54.9203 58.3956 54.9973 54.3239C55.0144 53.4774 55.2797 52.4634 55.7804 51.841C56.388 51.085 56.5185 50.3653 56.4907 49.4758C56.4372 47.6901 57.1754 46.3932 58.673 45.5535C58.887 45.4335 59.0945 45.0714 59.1052 44.8134C59.1523 43.684 59.1159 42.5523 59.1288 41.4207C59.1416 40.298 59.7578 39.5783 60.6906 39.5602C61.6513 39.5421 62.3081 40.2845 62.3252 41.441C62.3424 42.5433 62.3509 43.6478 62.3188 44.75C62.306 45.2095 62.4365 45.4471 62.843 45.6418C63.8721 46.1352 64.576 46.9952 64.8114 48.1631C64.959 48.8987 64.8841 49.6818 64.9526 50.44C64.9783 50.7229 65.0532 51.0783 65.2329 51.2525C66.1721 52.1624 66.5059 53.2827 66.4995 54.5977C66.4781 58.6151 66.4931 62.6302 66.4931 66.6476C66.4931 66.9487 66.4931 67.2474 66.4931 67.6073C69.452 67.6073 72.3019 67.6118 75.1539 67.6073C78.0616 67.6028 79.7946 65.7763 79.7946 62.7117C79.7967 50.0394 79.7946 37.3671 79.7946 24.6924C79.7946 24.3937 79.7946 24.0972 79.7946 23.8007H4.20465C4.20465 24.1447 4.20465 24.448 4.20465 24.7513C4.20465 37.3671 4.20465 49.9828 4.20465 62.6008C4.20465 62.8837 4.19823 63.1667 4.21749 63.4496C4.35228 65.4956 5.89061 67.424 7.7841 67.5281C10.3601 67.6707 12.9468 67.5643 15.6405 67.5643V67.562ZM4.21535 20.2948H79.7839C79.7839 16.3272 79.7839 12.423 79.7817 8.52102C79.7817 8.38069 79.7539 8.24037 79.7283 8.1023C79.2961 5.76882 77.6101 4.39498 75.1497 4.39498C53.0482 4.39498 30.9489 4.39498 8.84745 4.39498C8.6335 4.39498 8.41954 4.39498 8.20773 4.4063C6.1174 4.50815 4.28167 6.3007 4.23674 8.52328C4.15972 12.423 4.21535 16.3272 4.21535 20.2971V20.2948ZM40.3992 52.9478C40.3992 50.2069 40.3928 47.4954 40.4035 44.7862C40.4078 43.6206 41.0539 42.8986 42.0317 42.9167C42.9731 42.9326 43.5893 43.641 43.5979 44.7681C43.6107 46.8028 43.6021 48.8398 43.6021 50.8746C43.6021 51.5739 43.6021 52.2755 43.6021 53.0949C44.2012 52.8957 44.8345 53.4095 45.1747 52.52C46.6146 48.7538 48.0909 45.0012 49.5458 41.2419C49.9673 40.1532 49.7533 39.2026 48.9488 38.3901C48.2727 37.7066 47.5731 37.0457 46.9569 36.3056C45.2688 34.2776 43.6214 32.2135 41.9376 30.1403C41.929 30.1516 41.8327 30.2421 41.7621 30.353C39.8965 33.2704 37.6457 35.8303 35.2323 38.2407C34.1732 39.2977 34.0106 40.0876 34.5647 41.5021C35.9447 45.0216 37.3632 48.523 38.6876 52.0651C39.0299 52.9794 39.4814 53.2442 40.4014 52.9523L40.3992 52.9478ZM47.2779 67.5779V66.745C47.2779 63.8343 47.2779 60.926 47.2779 58.0153C47.2779 56.7501 47.004 56.4468 45.8315 56.4446C43.2726 56.4378 40.7138 56.4378 38.1549 56.4446C37.0145 56.4468 36.7257 56.7547 36.7235 57.9452C36.7192 60.9124 36.7214 63.8773 36.7235 66.8446C36.7235 67.0867 36.7535 67.3266 36.7706 67.5801H47.2757L47.2779 67.5779ZM25.523 67.5665C25.523 66.5684 25.523 65.6676 25.523 64.7646C25.523 59.9029 25.523 55.0391 25.523 50.1775C25.523 49.6773 25.5637 49.2065 24.8576 49.2155C23.0711 49.2404 21.2825 49.2042 19.4981 49.2495C19.2777 49.254 18.9097 49.5731 18.8798 49.7859C18.7963 50.4128 18.8498 51.0601 18.8498 51.755C19.6072 51.755 20.2448 51.7459 20.8824 51.755C21.9928 51.7731 22.7117 52.4272 22.7245 53.4163C22.7395 54.437 21.9971 55.1251 20.8481 55.1432C20.2127 55.1522 19.5772 55.1432 18.9118 55.1432V57.2368C19.6735 57.2368 20.3646 57.2119 21.0557 57.2435C22.0377 57.2865 22.7159 57.9927 22.7245 58.9297C22.7331 59.8962 22.0249 60.6 20.9979 60.6249C20.3132 60.6408 19.6264 60.6272 18.9097 60.6272V62.7593C19.6136 62.7593 20.2491 62.7479 20.8866 62.7615C22.0078 62.7864 22.7159 63.436 22.7266 64.4273C22.7395 65.4481 22.0056 66.1248 20.846 66.1474C20.2127 66.1588 19.5772 66.1474 18.9033 66.1474V67.5575H25.523V67.5665ZM63.2902 67.562C63.2902 63.1033 63.2859 58.7509 63.2966 54.3985C63.2966 53.878 63.042 53.801 62.6376 53.8033C61.4095 53.8169 60.1814 53.8463 58.9555 53.792C58.2943 53.7626 58.151 54.0228 58.1553 54.6724C58.1788 58.7441 58.166 62.8181 58.1703 66.8898C58.1703 67.1071 58.2024 67.3244 58.2216 67.562H63.2902ZM61.8246 50.3721C61.7112 49.7836 61.7647 48.9937 61.4737 48.8059C61.0822 48.5524 60.3034 48.5705 59.9204 48.8398C59.6401 49.0367 59.73 49.8244 59.6508 50.3721H61.8246Z" fill="#FD6F00"/>
<path d="M82.9996 7.82165V64.1784C82.9568 64.2802 82.8926 64.3753 82.8712 64.4816C82.0475 68.533 79.219 70.9728 75.3016 70.9977C73.8873 71.0068 72.4731 70.9977 71.0567 70.9977C50.3181 70.9977 29.5796 71 8.83889 70.9977C4.2667 70.9977 1.00818 67.6661 1.0039 62.9471C0.99534 44.9786 0.99534 27.0146 1.02101 9.05063C1.02101 8.13399 1.17078 7.18113 1.4425 6.31202C2.4866 2.97135 5.27442 1 8.84317 1C30.9425 1 53.0439 1 75.1432 1C75.3572 1 75.5711 1 75.783 1.00905C78.7334 1.16975 80.8879 2.66354 82.2165 5.43611C82.5717 6.17848 82.7429 7.02044 82.9975 7.81712L82.9996 7.82165ZM15.6405 67.562C15.6405 64.1919 15.6405 60.9124 15.6405 57.6328C15.6405 55.0594 15.6234 52.4838 15.6469 49.9104C15.6704 47.3958 17.1617 45.8409 19.5152 45.8341C21.2504 45.8296 22.9855 45.8319 24.7186 45.8341C27.2881 45.8364 28.7238 47.3574 28.7259 50.0914C28.7302 55.58 28.7259 61.0663 28.7259 66.5548C28.7259 66.883 28.7259 67.2112 28.7259 67.5575H33.5206C33.5206 67.2067 33.5206 66.9034 33.5206 66.6001C33.5206 63.7144 33.5163 60.8286 33.5249 57.9452C33.5249 57.5242 33.5527 57.0964 33.6169 56.6822C33.8373 55.2496 34.6802 54.2673 35.8035 53.4955C34.4321 50.0009 33.082 46.5607 31.732 43.1227C30.4974 39.9789 30.9275 37.9125 33.2339 35.5632C36.1095 32.6344 38.816 29.5586 40.6004 25.7087C40.8806 25.1044 41.3599 24.7807 42.0146 24.7807C42.7014 24.7807 43.1571 25.1315 43.4866 25.754C44.0365 26.786 44.4986 27.9064 45.2068 28.8004C47.1409 31.2425 49.1371 33.6371 51.1996 35.9593C52.8963 37.8695 53.4205 40.1374 52.4919 42.5795C52.0148 43.8356 51.5141 45.085 51.0263 46.3366C50.0956 48.7335 49.1671 51.1303 48.2257 53.5498C49.9715 54.6498 50.5321 56.2929 50.4914 58.3164C50.4337 61.0867 50.4765 63.8592 50.4765 66.6318V67.5371H54.9631C54.9631 67.1614 54.9631 66.8536 54.9631 66.5435C54.9631 62.4695 54.9203 58.3956 54.9973 54.3239C55.0144 53.4774 55.2797 52.4634 55.7804 51.841C56.388 51.085 56.5185 50.3653 56.4907 49.4758C56.4372 47.6901 57.1754 46.3932 58.673 45.5535C58.887 45.4335 59.0945 45.0714 59.1052 44.8134C59.1523 43.684 59.1159 42.5523 59.1288 41.4207C59.1416 40.298 59.7578 39.5783 60.6906 39.5602C61.6513 39.5421 62.3081 40.2845 62.3252 41.441C62.3424 42.5433 62.3509 43.6478 62.3188 44.75C62.306 45.2095 62.4365 45.4471 62.843 45.6418C63.8721 46.1352 64.576 46.9952 64.8114 48.1631C64.959 48.8987 64.8841 49.6818 64.9526 50.44C64.9783 50.7229 65.0532 51.0783 65.2329 51.2525C66.1721 52.1624 66.5059 53.2827 66.4995 54.5977C66.4781 58.6151 66.4931 62.6302 66.4931 66.6476C66.4931 66.9487 66.4931 67.2474 66.4931 67.6073C69.452 67.6073 72.3019 67.6118 75.1539 67.6073C78.0616 67.6028 79.7946 65.7763 79.7946 62.7117C79.7967 50.0394 79.7946 37.3671 79.7946 24.6924C79.7946 24.3937 79.7946 24.0972 79.7946 23.8007H4.20465C4.20465 24.1447 4.20465 24.448 4.20465 24.7513C4.20465 37.3671 4.20465 49.9828 4.20465 62.6008C4.20465 62.8837 4.19823 63.1667 4.21749 63.4496C4.35228 65.4956 5.89061 67.424 7.7841 67.5281C10.3601 67.6707 12.9468 67.5643 15.6405 67.5643V67.562ZM4.21535 20.2948H79.7839C79.7839 16.3272 79.7839 12.423 79.7817 8.52102C79.7817 8.38069 79.7539 8.24037 79.7283 8.1023C79.2961 5.76882 77.6101 4.39498 75.1497 4.39498C53.0482 4.39498 30.9489 4.39498 8.84745 4.39498C8.6335 4.39498 8.41954 4.39498 8.20773 4.4063C6.1174 4.50815 4.28167 6.3007 4.23674 8.52328C4.15972 12.423 4.21535 16.3272 4.21535 20.2971V20.2948ZM40.3992 52.9478C40.3992 50.2069 40.3928 47.4954 40.4035 44.7862C40.4078 43.6206 41.0539 42.8986 42.0317 42.9167C42.9731 42.9326 43.5893 43.641 43.5979 44.7681C43.6107 46.8028 43.6021 48.8398 43.6021 50.8746C43.6021 51.5739 43.6021 52.2755 43.6021 53.0949C44.2012 52.8957 44.8345 53.4095 45.1747 52.52C46.6146 48.7538 48.0909 45.0012 49.5458 41.2419C49.9673 40.1532 49.7533 39.2026 48.9488 38.3901C48.2727 37.7066 47.5731 37.0457 46.9569 36.3056C45.2688 34.2776 43.6214 32.2135 41.9376 30.1403C41.929 30.1516 41.8327 30.2421 41.7621 30.353C39.8965 33.2704 37.6457 35.8303 35.2323 38.2407C34.1732 39.2977 34.0106 40.0876 34.5647 41.5021C35.9447 45.0216 37.3632 48.523 38.6876 52.0651C39.0299 52.9794 39.4814 53.2442 40.4014 52.9523L40.3992 52.9478ZM47.2779 67.5779V66.745C47.2779 63.8343 47.2779 60.926 47.2779 58.0153C47.2779 56.7501 47.004 56.4468 45.8315 56.4446C43.2726 56.4378 40.7138 56.4378 38.1549 56.4446C37.0145 56.4468 36.7257 56.7547 36.7235 57.9452C36.7192 60.9124 36.7214 63.8773 36.7235 66.8446C36.7235 67.0867 36.7535 67.3266 36.7706 67.5801H47.2757L47.2779 67.5779ZM25.523 67.5665C25.523 66.5684 25.523 65.6676 25.523 64.7646C25.523 59.9029 25.523 55.0391 25.523 50.1775C25.523 49.6773 25.5637 49.2065 24.8576 49.2155C23.0711 49.2404 21.2825 49.2042 19.4981 49.2495C19.2777 49.254 18.9097 49.5731 18.8798 49.7859C18.7963 50.4128 18.8498 51.0601 18.8498 51.755C19.6072 51.755 20.2448 51.7459 20.8824 51.755C21.9928 51.7731 22.7117 52.4272 22.7245 53.4163C22.7395 54.437 21.9971 55.1251 20.8481 55.1432C20.2127 55.1522 19.5772 55.1432 18.9118 55.1432V57.2368C19.6735 57.2368 20.3646 57.2119 21.0557 57.2435C22.0377 57.2865 22.7159 57.9927 22.7245 58.9297C22.7331 59.8962 22.0249 60.6 20.9979 60.6249C20.3132 60.6408 19.6264 60.6272 18.9097 60.6272V62.7593C19.6136 62.7593 20.2491 62.7479 20.8866 62.7615C22.0078 62.7864 22.7159 63.436 22.7266 64.4273C22.7395 65.4481 22.0056 66.1248 20.846 66.1474C20.2127 66.1588 19.5772 66.1474 18.9033 66.1474V67.5575H25.523V67.5665ZM63.2902 67.562C63.2902 63.1033 63.2859 58.7509 63.2966 54.3985C63.2966 53.878 63.042 53.801 62.6376 53.8033C61.4095 53.8169 60.1814 53.8463 58.9555 53.792C58.2943 53.7626 58.151 54.0228 58.1553 54.6724C58.1788 58.7441 58.166 62.8181 58.1703 66.8898C58.1703 67.1071 58.2024 67.3244 58.2216 67.562H63.2902ZM61.8246 50.3721C61.7112 49.7836 61.7647 48.9937 61.4737 48.8059C61.0822 48.5524 60.3034 48.5705 59.9204 48.8398C59.6401 49.0367 59.73 49.8244 59.6508 50.3721H61.8246Z" stroke="#FD6F00" mask="url(#path-1-outside-1_252_10)"/>
</svg>
