<svg width="72" height="82" viewBox="0 0 72 82" fill="none" xmlns="http://www.w3.org/2000/svg">
<path d="M48.3192 82H23.6793C22.6725 81.3978 22.3455 80.7871 22.5742 79.9479C22.7858 79.1791 23.4271 78.8011 24.5365 78.799C25.5925 78.799 26.6484 78.799 27.7386 78.799C28.2879 75.8094 28.8223 72.9138 29.376 69.8986C28.9399 69.8986 28.6278 69.8986 28.3157 69.8986C21.9992 69.8986 15.6827 69.9029 9.36612 69.8922C8.62224 69.8922 7.8634 69.873 7.1409 69.7235C2.83155 68.8416 0.00994546 65.3267 0.00567031 60.8444C-0.00501757 49.7467 -0.00074242 38.6489 0.00353273 27.5511C0.00353273 22.0247 3.76353 18.2664 9.28703 18.2578C10.0245 18.2578 10.7598 18.2578 11.5507 18.2578C11.5507 17.8371 11.5507 17.5211 11.5507 17.2051C11.5507 13.1499 11.54 9.09474 11.555 5.03958C11.5635 2.60307 12.891 0.834948 15.1632 0.158021C15.2851 0.121719 15.3984 0.0533854 15.5159 0C29.1708 0 42.8235 0 56.4783 0C59.6804 1.3026 60.4457 2.46 60.4457 6.00052C60.4457 9.78875 60.4457 13.577 60.4457 17.3652C60.4457 17.6449 60.4457 17.9268 60.4457 18.2578C61.3327 18.2578 62.1001 18.2557 62.8697 18.2578C68.1922 18.2813 71.9864 22.0674 71.9907 27.391C71.9993 38.5144 71.9971 49.6399 71.9843 60.7633C71.9843 61.5299 71.9202 62.3157 71.7449 63.061C70.7701 67.2251 67.3222 69.8794 62.8718 69.8901C56.4762 69.9071 50.0784 69.8943 43.6828 69.8943C43.3707 69.8943 43.0586 69.8943 42.6204 69.8943C43.1804 72.9309 43.7191 75.8479 44.2621 78.7947C45.5168 78.7947 46.6882 78.7712 47.8575 78.8011C48.9006 78.8268 49.5461 79.5848 49.4606 80.5778C49.3987 81.3188 48.8835 81.6733 48.317 81.9936L48.3192 82ZM14.7998 11.5099V58.3011H57.1858V11.5099H14.7998ZM68.7266 61.6559H3.21417C3.31464 62.0872 3.37022 62.4268 3.47282 62.7556C4.23807 65.2199 6.33931 66.6912 9.1374 66.6933C27.0503 66.6976 44.9632 66.6955 62.8761 66.6933C63.1155 66.6933 63.3549 66.6848 63.5943 66.6656C66.3219 66.4648 68.3974 64.464 68.7266 61.6559ZM11.4887 58.3246V29.8489H3.24624V58.3246H11.4887ZM68.7416 58.3182V29.8424H60.4905V58.3182H68.7416ZM14.7742 8.17865H57.1858C57.2158 8.04839 57.2371 7.995 57.2371 7.94375C57.2414 7.08958 57.2478 6.23755 57.2457 5.38339C57.2436 3.71562 56.722 3.20312 55.0312 3.20312C42.3468 3.20312 29.6624 3.20312 16.978 3.20312C16.7643 3.20312 16.5505 3.19458 16.3389 3.20953C15.486 3.27146 14.8426 3.80104 14.7913 4.65307C14.7229 5.81474 14.7742 6.98495 14.7742 8.17865ZM40.998 78.7627C40.4721 75.9055 39.9677 73.1295 39.4311 70.3598C39.3969 70.1805 39.1062 69.9221 38.9331 69.9199C36.8575 69.8901 34.7819 69.9007 32.6401 69.9007C32.0907 72.8711 31.5499 75.7923 30.9984 78.7648H41.0001L40.998 78.7627ZM11.4909 26.5603V21.5165C6.56803 21.0552 3.2954 23.0817 3.31678 26.5603H11.4909ZM60.482 26.5539H68.7074C68.5834 24.2348 66.8562 22.1037 64.5519 21.6638C63.2395 21.414 61.8693 21.4716 60.4841 21.3883V26.5539H60.482Z" fill="#FD6F00"/>
</svg>
